<svg width="64" height="64" fill="none" xmlns="http://www.w3.org/2000/svg">
  <path d="M32.593 20.79h0v.001h0l.407.57.406-.57h0l.004-.005.018-.024a7.038 7.038 0 01.4-.47c.287-.309.717-.724 1.281-1.14 1.128-.83 2.777-1.652 4.891-1.652 4.242 0 8.5 3.794 8.5 8.5 0 1.476-.124 2.41-.408 3.207-.285.796-.743 1.494-1.485 2.484L33 48.214 19.393 31.69C17.971 29.791 17.5 27.902 17.5 26c0-4.724 3.776-8.5 8.5-8.5 2.114 0 3.763.821 4.89 1.652.565.416.995.831 1.283 1.141a7.038 7.038 0 01.4.47l.017.023.003.005h0zM33 38.005c.158.158.361.34.61.524.653.48 1.63.972 2.89.972 2.508 0 5-2.206 5-5 0-.774-.064-1.34-.248-1.856-.183-.513-.473-.94-.852-1.444l-.007-.01-.007-.008-7-8.5-.386-.468-.386.468-7 8.5-.007.009-.007.009a5.304 5.304 0 00-1.1 3.3c0 2.776 2.224 5 5 5 1.26 0 2.237-.491 2.89-.972.248-.183.452-.366.61-.524z" fill="#FF3E00" stroke="#000"/>
</svg>