<svg width="64" height="64" fill="none" xmlns="http://www.w3.org/2000/svg">
    <path d="M43.489 35.459l3.269-2.8 6.867 5.882a.5.5 0 01-.285.878l-9.014.723-.998-4.187a.5.5 0 01.16-.496zM39.26 41.55l4.291-.344 2.098 8.796a.5.5 0 01-.747.542l-7.716-4.713 1.653-3.975a.5.5 0 01.421-.306zm-7 2.444l3.673 2.244-3.472 8.35a.5.5 0 01-.924 0l-3.472-8.35 3.673-2.244a.5.5 0 01.522 0zm-7.1-2.138l1.652 3.975-7.716 4.713a.5.5 0 01-.747-.542l2.098-8.796 4.29.344a.5.5 0 01.422.306zm-4.489-5.902l-.998 4.187-9.014-.723a.5.5 0 01-.285-.878l6.867-5.883 3.27 2.8a.5.5 0 01.16.497zm-.16-7.414l-3.27 2.8-6.867-5.882a.5.5 0 01.285-.878l9.014-.723.998 4.187a.5.5 0 01-.16.496zm4.227-6.092l-4.291.344-2.098-8.796a.5.5 0 01.747-.543l7.716 4.714-1.653 3.975a.5.5 0 01-.421.306zm7-2.444l-3.673-2.244 3.472-8.35a.5.5 0 01.924 0l3.472 8.35-3.673 2.244a.5.5 0 01-.522 0zm5.448-1.837l7.716-4.713a.5.5 0 01.747.542l-2.098 8.796-4.29-.344a.5.5 0 01-.422-.306l-1.654-3.975zm6.14 9.877l1-4.187 9.013.723a.5.5 0 01.285.878l-6.867 5.883-3.27-2.8a.5.5 0 01-.16-.497z" fill="#FFE81D" stroke="#000"/>
</svg>